<svg viewBox="0 0 1700 1010" xmlns="http://www.w3.org/2000/svg" font-family="-apple-system,Helvetica,Arial,sans-serif">
<defs>
  <marker id="arrow" viewBox="0 0 10 10" refX="8" refY="5" markerWidth="7" markerHeight="7" orient="auto-start-reverse">
    <path d="M2 1L8 5L2 9" fill="none" stroke="#6B6A63" stroke-width="1.6" stroke-linecap="round" stroke-linejoin="round"/>
  </marker>
</defs>
<rect x="0" y="0" width="1700" height="1010" fill="#FBFAF7"/>
<text x="20" y="25" font-size="13" font-weight="700" fill="#0F6E56">1. Query and Validate</text>
<rect x="30" y="48" width="160" height="55" rx="8" fill="#E1F5EE" stroke="#0F6E56" stroke-width="1.4"/><text x="110" y="69" text-anchor="middle" font-size="12" font-weight="700" fill="#04342C">ExposureCommandQuery</text><text x="110" y="85" text-anchor="middle" font-size="9.5" fill="#0F6E56">Surface Command run_query</text>
<path d="M190,75 L255,75" fill="none" stroke="#6B6A63" stroke-width="1.4" marker-end="url(#arrow)"/>
<polygon points="340,35.0 415.0,75 340,115.0 265.0,75" fill="#E1F5EE" stroke="#0F6E56" stroke-width="1.4"/><text x="340" y="71" text-anchor="middle" font-size="11" font-weight="700" fill="#04342C">SCQueryValidation</text><text x="340" y="86" text-anchor="middle" font-size="9" fill="#0F6E56">items != 0 ?</text>
<rect x="255" y="175" width="170" height="50" rx="8" fill="#E1F5EE" stroke="#0F6E56" stroke-width="1.4"/><text x="340" y="194" text-anchor="middle" font-size="12" font-weight="700" fill="#04342C">Artifact - 1</text><text x="340" y="210" text-anchor="middle" font-size="9.5" fill="#0F6E56">"result is empty" - ends</text>
<path d="M340,115 L340,175 L340,175" fill="none" stroke="#6B6A63" stroke-width="1.4" marker-end="url(#arrow)"/><rect x="310" y="155" width="60" height="16" rx="8" fill="white" stroke="#D8D6CC"/><text x="340" y="167" text-anchor="middle" font-size="8.5" fill="#5F5E5A">not valid</text>
<rect x="510" y="48" width="160" height="55" rx="8" fill="#E1F5EE" stroke="#0F6E56" stroke-width="1.4"/><text x="590" y="69" text-anchor="middle" font-size="12" font-weight="700" fill="#04342C">OutputSample</text><text x="590" y="85" text-anchor="middle" font-size="9.5" fill="#0F6E56">debug dump of items</text>
<path d="M415,75 L510,75" fill="none" stroke="#6B6A63" stroke-width="1.4" marker-end="url(#arrow)"/><rect x="436" y="58" width="52" height="16" rx="8" fill="white" stroke="#D8D6CC"/><text x="462" y="66" text-anchor="middle" font-size="8.5" fill="#5F5E5A">valid</text>
<path d="M590,103 L590,200" fill="none" stroke="#6B6A63" stroke-width="1.4" marker-end="url(#arrow)"/>
<rect x="20" y="225" width="1660" height="340" rx="12" fill="none" stroke="#B4B2A9" stroke-width="1.3" stroke-dasharray="6 5"/><text x="34" y="243" font-size="10.5" font-weight="700" fill="#6B6A63">EachFinding — repeats once per finding</text>
<path d="M590,200 L590,225" fill="none" stroke="#6B6A63" stroke-width="1.4" marker-end="url(#arrow)"/>
<path d="M590,240 L590,240 L130,240" fill="none" stroke="#6B6A63" stroke-width="1.4" marker-end="url(#arrow)"/>
<rect x="65" y="235" width="130" height="50" rx="8" fill="#E1F5EE" stroke="#0F6E56" stroke-width="1.4"/><text x="130" y="254" text-anchor="middle" font-size="12" font-weight="700" fill="#04342C">EachTicket</text><text x="130" y="270" text-anchor="middle" font-size="9.5" fill="#0F6E56">preview artifact</text>
<path d="M195,260 L245,260" fill="none" stroke="#6B6A63" stroke-width="1.4" marker-end="url(#arrow)"/>
<rect x="255" y="235" width="130" height="50" rx="8" fill="#E1F5EE" stroke="#0F6E56" stroke-width="1.4"/><text x="320" y="254" text-anchor="middle" font-size="12" font-weight="700" fill="#04342C">FindIssue</text><text x="320" y="270" text-anchor="middle" font-size="9.5" fill="#0F6E56">jira find_issues</text>
<path d="M385,260 L435,260" fill="none" stroke="#6B6A63" stroke-width="1.4" marker-end="url(#arrow)"/>
<rect x="435" y="235" width="150" height="50" rx="8" fill="#E1F5EE" stroke="#0F6E56" stroke-width="1.4"/><text x="510" y="254" text-anchor="middle" font-size="12" font-weight="700" fill="#04342C">AffectedHostsList</text><text x="510" y="270" text-anchor="middle" font-size="9.5" fill="#0F6E56">query host string</text>
<path d="M585,260 L630,260" fill="none" stroke="#6B6A63" stroke-width="1.4" marker-end="url(#arrow)"/>
<polygon points="700,220.0 770.0,260 700,300.0 630.0,260" fill="#E1F5EE" stroke="#0F6E56" stroke-width="1.4"/><text x="700" y="256" text-anchor="middle" font-size="11" font-weight="700" fill="#04342C">IssueExists</text><text x="700" y="271" text-anchor="middle" font-size="9" fill="#0F6E56">issues = [] ?</text>
<path d="M700,300 L700,400 L700,400" fill="none" stroke="#6B6A63" stroke-width="1.4" marker-end="url(#arrow)"/><rect x="670" y="380" width="60" height="16" rx="8" fill="white" stroke="#D8D6CC"/><text x="700" y="392" text-anchor="middle" font-size="8.5" fill="#5F5E5A">not found</text>
<rect x="620" y="405" width="160" height="50" rx="8" fill="#E1F5EE" stroke="#0F6E56" stroke-width="1.4"/><text x="700" y="424" text-anchor="middle" font-size="12" font-weight="700" fill="#04342C">CreateNewIssue</text><text x="700" y="440" text-anchor="middle" font-size="9.5" fill="#0F6E56">jira create_issue</text>
<path d="M700,455 L700,490" fill="none" stroke="#6B6A63" stroke-width="1.4" marker-end="url(#arrow)"/>
<circle cx="700" cy="495" r="4" fill="#5F5E5A"/>
<path d="M770,260 L830,260" fill="none" stroke="#6B6A63" stroke-width="1.4" marker-end="url(#arrow)"/><rect x="774" y="243" width="52" height="16" rx="8" fill="white" stroke="#D8D6CC"/><text x="800" y="251" text-anchor="middle" font-size="8.5" fill="#5F5E5A">found</text>
<rect x="830" y="225" width="160" height="90" rx="12" fill="none" stroke="#B4B2A9" stroke-width="1.3" stroke-dasharray="6 5"/><text x="844" y="243" font-size="10.5" font-weight="700" fill="#6B6A63">EachMatchedIssue</text>
<rect x="845" y="238" width="130" height="45" rx="8" fill="#E1F5EE" stroke="#0F6E56" stroke-width="1.4"/><text x="910" y="254" text-anchor="middle" font-size="12" font-weight="700" fill="#04342C">GetIssue</text><text x="910" y="270" text-anchor="middle" font-size="9.5" fill="#0F6E56">jira get_issue</text>
<path d="M990,260 L1040,260" fill="none" stroke="#6B6A63" stroke-width="1.4" marker-end="url(#arrow)"/>
<rect x="1045" y="235" width="170" height="50" rx="8" fill="#E1F5EE" stroke="#0F6E56" stroke-width="1.4"/><text x="1130" y="254" text-anchor="middle" font-size="12" font-weight="700" fill="#04342C">ExtractHostsFromExistingTicket</text><text x="1130" y="270" text-anchor="middle" font-size="9.5" fill="#0F6E56">jq: pull hosts, all matched</text>
<path d="M1215,260 L1265,260" fill="none" stroke="#6B6A63" stroke-width="1.4" marker-end="url(#arrow)"/>
<rect x="1280" y="235" width="140" height="50" rx="8" fill="#E1F5EE" stroke="#0F6E56" stroke-width="1.4"/><text x="1350" y="254" text-anchor="middle" font-size="12" font-weight="700" fill="#04342C">JQComparison</text><text x="1350" y="270" text-anchor="middle" font-size="9.5" fill="#0F6E56">jq: added / removed</text>
<path d="M1420,260 L1470,260" fill="none" stroke="#6B6A63" stroke-width="1.4" marker-end="url(#arrow)"/>
<rect x="1490" y="235" width="130" height="50" rx="8" fill="#E1F5EE" stroke="#0F6E56" stroke-width="1.4"/><text x="1555" y="254" text-anchor="middle" font-size="12" font-weight="700" fill="#04342C">ParseAddedRemoved</text><text x="1555" y="270" text-anchor="middle" font-size="9.5" fill="#0F6E56">string→object</text>
<path d="M1555,285 L1555,470 L1555,470" fill="none" stroke="#6B6A63" stroke-width="1.4" marker-end="url(#arrow)"/>
<rect x="1470" y="425" width="170" height="90" rx="12" fill="none" stroke="#B4B2A9" stroke-width="1.3" stroke-dasharray="6 5"/><text x="1484" y="443" font-size="10.5" font-weight="700" fill="#6B6A63">EachTicketUpdate</text>
<rect x="1485" y="449" width="140" height="42" rx="8" fill="#E1F5EE" stroke="#0F6E56" stroke-width="1.4"/><text x="1555" y="470" dominant-baseline="central" text-anchor="middle" font-size="12" font-weight="700" fill="#04342C">UpdateTicketDescription + AddRemovalComment</text>
<path d="M1555,491 L1555,560 L1350,560" fill="none" stroke="#6B6A63" stroke-width="1.4" marker-end="url(#arrow)"/><rect x="1525" y="540" width="60" height="16" rx="8" fill="white" stroke="#D8D6CC"/><text x="1555" y="552" text-anchor="middle" font-size="8.5" fill="#5F5E5A">loop finishes</text>
<polygon points="1250,520.0 1325.0,560 1250,600.0 1175.0,560" fill="#E1F5EE" stroke="#0F6E56" stroke-width="1.4"/><text x="1250" y="556" text-anchor="middle" font-size="11" font-weight="700" fill="#04342C">HasAddedHosts</text><text x="1250" y="571" text-anchor="middle" font-size="9" fill="#0F6E56">added_count != 0 ?</text>
<rect x="920" y="535" width="160" height="50" rx="8" fill="#E1F5EE" stroke="#0F6E56" stroke-width="1.4"/><text x="1000" y="554" text-anchor="middle" font-size="12" font-weight="700" fill="#04342C">CreateAddedHostsTicket</text><text x="1000" y="570" text-anchor="middle" font-size="9.5" fill="#0F6E56">jira create_issue</text>
<path d="M1175,560 L1080,560" fill="none" stroke="#6B6A63" stroke-width="1.4" marker-end="url(#arrow)"/><rect x="1102" y="543" width="52" height="16" rx="8" fill="white" stroke="#D8D6CC"/><text x="1128" y="551" text-anchor="middle" font-size="8.5" fill="#5F5E5A">yes</text>
<path d="M920,560 L870,560" fill="none" stroke="#6B6A63" stroke-width="1.4" marker-end="url(#arrow)"/>
<circle cx="860" cy="560" r="4" fill="#5F5E5A"/>
<path d="M1250,600 L1250,640 L1250,640" fill="none" stroke="#6B6A63" stroke-width="1.4" marker-end="url(#arrow)"/><rect x="1220" y="620" width="60" height="16" rx="8" fill="white" stroke="#D8D6CC"/><text x="1250" y="632" text-anchor="middle" font-size="8.5" fill="#5F5E5A">no</text>
<circle cx="1250" cy="645" r="4" fill="#5F5E5A"/>
<text x="20" y="605" font-size="13" font-weight="700" fill="#0F6E56">3. Reverse Sync — runs once, after every finding is processed</text>
<path d="M850,620 L850,610" fill="none" stroke="#6B6A63" stroke-width="1.4" stroke-dasharray="5 4" marker-end="url(#arrow)"/>
<rect x="50" y="672" width="160" height="55" rx="8" fill="#E1F5EE" stroke="#0F6E56" stroke-width="1.4"/><text x="130" y="694" text-anchor="middle" font-size="12" font-weight="700" fill="#04342C">FindAllOpenTickets</text><text x="130" y="710" text-anchor="middle" font-size="9.5" fill="#0F6E56">jira find_issues, whole project</text>
<path d="M210,700 L265,700" fill="none" stroke="#6B6A63" stroke-width="1.4" marker-end="url(#arrow)"/>
<rect x="290" y="672" width="160" height="55" rx="8" fill="#E1F5EE" stroke="#0F6E56" stroke-width="1.4"/><text x="370" y="694" text-anchor="middle" font-size="12" font-weight="700" fill="#04342C">CheckStaleTickets</text><text x="370" y="710" text-anchor="middle" font-size="9.5" fill="#0F6E56">jq: title not in any finding?</text>
<path d="M450,700 L505,700" fill="none" stroke="#6B6A63" stroke-width="1.4" marker-end="url(#arrow)"/>
<rect x="535" y="672" width="150" height="55" rx="8" fill="#E1F5EE" stroke="#0F6E56" stroke-width="1.4"/><text x="610" y="694" text-anchor="middle" font-size="12" font-weight="700" fill="#04342C">ParseStaleTickets</text><text x="610" y="710" text-anchor="middle" font-size="9.5" fill="#0F6E56">string→object</text>
<path d="M685,700 L740,700" fill="none" stroke="#6B6A63" stroke-width="1.4" marker-end="url(#arrow)"/>
<rect x="740" y="645" width="190" height="110" rx="12" fill="none" stroke="#B4B2A9" stroke-width="1.3" stroke-dasharray="6 5"/><text x="754" y="663" font-size="10.5" font-weight="700" fill="#6B6A63">EachStaleTicket</text>
<rect x="760" y="678" width="150" height="45" rx="8" fill="#E1F5EE" stroke="#0F6E56" stroke-width="1.4"/><text x="835" y="694" text-anchor="middle" font-size="12" font-weight="700" fill="#04342C">TransitionStaleTicket</text><text x="835" y="710" text-anchor="middle" font-size="9.5" fill="#0F6E56">jira transition_issue</text>
<path d="M930,700 L985,700" fill="none" stroke="#6B6A63" stroke-width="1.4" marker-end="url(#arrow)"/>
<rect x="1025" y="670" width="190" height="60" rx="8" fill="#F1EFE8" stroke="#5F5E5A" stroke-width="1.4"/><text x="1120" y="694" text-anchor="middle" font-size="12" font-weight="700" fill="#2C2C2A">FullRunDebugSummary</text><text x="1120" y="710" text-anchor="middle" font-size="9.5" fill="#5F5E5A">final artifact - all results</text>
</svg>